<?xml version="1.0" encoding="UTF-8"?>
<svg width="188px" height="228px" viewBox="0 0 188 228" version="1.1" xmlns="http://www.w3.org/2000/svg" xmlns:xlink="http://www.w3.org/1999/xlink">
    <!-- Generator: Sketch 59.1 (86144) - https://sketch.com -->
    <title>illustration/dot/vert-mini@1,5x</title>
    <desc>Created with Sketch.</desc>
    <g id="illustration/dot/vert-mini" stroke="none" stroke-width="1" fill="none" fill-rule="evenodd">
        <g id="illustration/dot/vert" fill="#00D2B5">
            <g id="illustration/rond/vert">
                <circle cx="4" cy="4" r="4"></circle>
            </g>
            <g id="illustration/rond/vert" transform="translate(0.000000, 120.000000)">
                <circle cx="4" cy="4" r="4"></circle>
            </g>
            <g id="illustration/rond/vert" transform="translate(100.000000, 0.000000)">
                <circle cx="4" cy="4" r="4"></circle>
            </g>
            <g id="illustration/rond/vert" transform="translate(100.000000, 120.000000)">
                <circle cx="4" cy="4" r="4"></circle>
            </g>
            <g id="illustration/rond/vert" transform="translate(0.000000, 20.000000)">
                <circle cx="4" cy="4" r="4"></circle>
            </g>
            <g id="illustration/rond/vert" transform="translate(0.000000, 140.000000)">
                <circle cx="4" cy="4" r="4"></circle>
            </g>
            <g id="illustration/rond/vert" transform="translate(100.000000, 20.000000)">
                <circle cx="4" cy="4" r="4"></circle>
            </g>
            <g id="illustration/rond/vert" transform="translate(100.000000, 140.000000)">
                <circle cx="4" cy="4" r="4"></circle>
            </g>
            <g id="illustration/rond/vert" transform="translate(20.000000, 0.000000)">
                <circle cx="4" cy="4" r="4"></circle>
            </g>
            <g id="illustration/rond/vert" transform="translate(20.000000, 120.000000)">
                <circle cx="4" cy="4" r="4"></circle>
            </g>
            <g id="illustration/rond/vert" transform="translate(120.000000, 0.000000)">
                <circle cx="4" cy="4" r="4"></circle>
            </g>
            <g id="illustration/rond/vert" transform="translate(120.000000, 120.000000)">
                <circle cx="4" cy="4" r="4"></circle>
            </g>
            <g id="illustration/rond/vert" transform="translate(20.000000, 20.000000)">
                <circle cx="4" cy="4" r="4"></circle>
            </g>
            <g id="illustration/rond/vert" transform="translate(20.000000, 140.000000)">
                <circle cx="4" cy="4" r="4"></circle>
            </g>
            <g id="illustration/rond/vert" transform="translate(120.000000, 20.000000)">
                <circle cx="4" cy="4" r="4"></circle>
            </g>
            <g id="illustration/rond/vert" transform="translate(120.000000, 140.000000)">
                <circle cx="4" cy="4" r="4"></circle>
            </g>
            <g id="illustration/rond/vert" transform="translate(40.000000, 0.000000)">
                <circle cx="4" cy="4" r="4"></circle>
            </g>
            <g id="illustration/rond/vert" transform="translate(40.000000, 120.000000)">
                <circle cx="4" cy="4" r="4"></circle>
            </g>
            <g id="illustration/rond/vert" transform="translate(140.000000, 0.000000)">
                <circle cx="4" cy="4" r="4"></circle>
            </g>
            <g id="illustration/rond/vert" transform="translate(140.000000, 120.000000)">
                <circle cx="4" cy="4" r="4"></circle>
            </g>
            <g id="illustration/rond/vert" transform="translate(40.000000, 20.000000)">
                <circle cx="4" cy="4" r="4"></circle>
            </g>
            <g id="illustration/rond/vert" transform="translate(40.000000, 140.000000)">
                <circle cx="4" cy="4" r="4"></circle>
            </g>
            <g id="illustration/rond/vert" transform="translate(140.000000, 20.000000)">
                <circle cx="4" cy="4" r="4"></circle>
            </g>
            <g id="illustration/rond/vert" transform="translate(140.000000, 140.000000)">
                <circle cx="4" cy="4" r="4"></circle>
            </g>
            <g id="illustration/rond/vert" transform="translate(60.000000, 0.000000)">
                <circle cx="4" cy="4" r="4"></circle>
            </g>
            <g id="illustration/rond/vert" transform="translate(60.000000, 120.000000)">
                <circle cx="4" cy="4" r="4"></circle>
            </g>
            <g id="illustration/rond/vert" transform="translate(160.000000, 0.000000)">
                <circle cx="4" cy="4" r="4"></circle>
            </g>
            <g id="illustration/rond/vert" transform="translate(160.000000, 120.000000)">
                <circle cx="4" cy="4" r="4"></circle>
            </g>
            <g id="illustration/rond/vert" transform="translate(60.000000, 20.000000)">
                <circle cx="4" cy="4" r="4"></circle>
            </g>
            <g id="illustration/rond/vert" transform="translate(60.000000, 140.000000)">
                <circle cx="4" cy="4" r="4"></circle>
            </g>
            <g id="illustration/rond/vert" transform="translate(160.000000, 20.000000)">
                <circle cx="4" cy="4" r="4"></circle>
            </g>
            <g id="illustration/rond/vert" transform="translate(160.000000, 140.000000)">
                <circle cx="4" cy="4" r="4"></circle>
            </g>
            <g id="illustration/rond/vert" transform="translate(80.000000, 0.000000)">
                <circle cx="4" cy="4" r="4"></circle>
            </g>
            <g id="illustration/rond/vert" transform="translate(80.000000, 120.000000)">
                <circle cx="4" cy="4" r="4"></circle>
            </g>
            <g id="illustration/rond/vert" transform="translate(80.000000, 20.000000)">
                <circle cx="4" cy="4" r="4"></circle>
            </g>
            <g id="illustration/rond/vert" transform="translate(80.000000, 140.000000)">
                <circle cx="4" cy="4" r="4"></circle>
            </g>
            <g id="illustration/rond/vert" transform="translate(0.000000, 40.000000)">
                <circle cx="4" cy="4" r="4"></circle>
            </g>
            <g id="illustration/rond/vert" transform="translate(0.000000, 160.000000)">
                <circle cx="4" cy="4" r="4"></circle>
            </g>
            <g id="illustration/rond/vert" transform="translate(100.000000, 40.000000)">
                <circle cx="4" cy="4" r="4"></circle>
            </g>
            <g id="illustration/rond/vert" transform="translate(100.000000, 160.000000)">
                <circle cx="4" cy="4" r="4"></circle>
            </g>
            <g id="illustration/rond/vert" transform="translate(20.000000, 40.000000)">
                <circle cx="4" cy="4" r="4"></circle>
            </g>
            <g id="illustration/rond/vert" transform="translate(20.000000, 160.000000)">
                <circle cx="4" cy="4" r="4"></circle>
            </g>
            <g id="illustration/rond/vert" transform="translate(120.000000, 40.000000)">
                <circle cx="4" cy="4" r="4"></circle>
            </g>
            <g id="illustration/rond/vert" transform="translate(120.000000, 160.000000)">
                <circle cx="4" cy="4" r="4"></circle>
            </g>
            <g id="illustration/rond/vert" transform="translate(40.000000, 40.000000)">
                <circle cx="4" cy="4" r="4"></circle>
            </g>
            <g id="illustration/rond/vert" transform="translate(40.000000, 160.000000)">
                <circle cx="4" cy="4" r="4"></circle>
            </g>
            <g id="illustration/rond/vert" transform="translate(140.000000, 40.000000)">
                <circle cx="4" cy="4" r="4"></circle>
            </g>
            <g id="illustration/rond/vert" transform="translate(140.000000, 160.000000)">
                <circle cx="4" cy="4" r="4"></circle>
            </g>
            <g id="illustration/rond/vert" transform="translate(60.000000, 40.000000)">
                <circle cx="4" cy="4" r="4"></circle>
            </g>
            <g id="illustration/rond/vert" transform="translate(60.000000, 160.000000)">
                <circle cx="4" cy="4" r="4"></circle>
            </g>
            <g id="illustration/rond/vert" transform="translate(160.000000, 40.000000)">
                <circle cx="4" cy="4" r="4"></circle>
            </g>
            <g id="illustration/rond/vert" transform="translate(160.000000, 160.000000)">
                <circle cx="4" cy="4" r="4"></circle>
            </g>
            <g id="illustration/rond/vert" transform="translate(80.000000, 40.000000)">
                <circle cx="4" cy="4" r="4"></circle>
            </g>
            <g id="illustration/rond/vert" transform="translate(80.000000, 160.000000)">
                <circle cx="4" cy="4" r="4"></circle>
            </g>
            <g id="illustration/rond/vert" transform="translate(0.000000, 60.000000)">
                <circle cx="4" cy="4" r="4"></circle>
            </g>
            <g id="illustration/rond/vert" transform="translate(0.000000, 180.000000)">
                <circle cx="4" cy="4" r="4"></circle>
            </g>
            <g id="illustration/rond/vert" transform="translate(100.000000, 60.000000)">
                <circle cx="4" cy="4" r="4"></circle>
            </g>
            <g id="illustration/rond/vert" transform="translate(100.000000, 180.000000)">
                <circle cx="4" cy="4" r="4"></circle>
            </g>
            <g id="illustration/rond/vert" transform="translate(20.000000, 60.000000)">
                <circle cx="4" cy="4" r="4"></circle>
            </g>
            <g id="illustration/rond/vert" transform="translate(20.000000, 180.000000)">
                <circle cx="4" cy="4" r="4"></circle>
            </g>
            <g id="illustration/rond/vert" transform="translate(120.000000, 60.000000)">
                <circle cx="4" cy="4" r="4"></circle>
            </g>
            <g id="illustration/rond/vert" transform="translate(120.000000, 180.000000)">
                <circle cx="4" cy="4" r="4"></circle>
            </g>
            <g id="illustration/rond/vert" transform="translate(40.000000, 60.000000)">
                <circle cx="4" cy="4" r="4"></circle>
            </g>
            <g id="illustration/rond/vert" transform="translate(40.000000, 180.000000)">
                <circle cx="4" cy="4" r="4"></circle>
            </g>
            <g id="illustration/rond/vert" transform="translate(140.000000, 60.000000)">
                <circle cx="4" cy="4" r="4"></circle>
            </g>
            <g id="illustration/rond/vert" transform="translate(140.000000, 180.000000)">
                <circle cx="4" cy="4" r="4"></circle>
            </g>
            <g id="illustration/rond/vert" transform="translate(60.000000, 60.000000)">
                <circle cx="4" cy="4" r="4"></circle>
            </g>
            <g id="illustration/rond/vert" transform="translate(60.000000, 180.000000)">
                <circle cx="4" cy="4" r="4"></circle>
            </g>
            <g id="illustration/rond/vert" transform="translate(160.000000, 60.000000)">
                <circle cx="4" cy="4" r="4"></circle>
            </g>
            <g id="illustration/rond/vert" transform="translate(160.000000, 180.000000)">
                <circle cx="4" cy="4" r="4"></circle>
            </g>
            <g id="illustration/rond/vert" transform="translate(80.000000, 60.000000)">
                <circle cx="4" cy="4" r="4"></circle>
            </g>
            <g id="illustration/rond/vert" transform="translate(80.000000, 180.000000)">
                <circle cx="4" cy="4" r="4"></circle>
            </g>
            <g id="illustration/rond/vert" transform="translate(0.000000, 80.000000)">
                <circle cx="4" cy="4" r="4"></circle>
            </g>
            <g id="illustration/rond/vert" transform="translate(0.000000, 200.000000)">
                <circle cx="4" cy="4" r="4"></circle>
            </g>
            <g id="illustration/rond/vert" transform="translate(100.000000, 80.000000)">
                <circle cx="4" cy="4" r="4"></circle>
            </g>
            <g id="illustration/rond/vert" transform="translate(100.000000, 200.000000)">
                <circle cx="4" cy="4" r="4"></circle>
            </g>
            <g id="illustration/rond/vert" transform="translate(20.000000, 80.000000)">
                <circle cx="4" cy="4" r="4"></circle>
            </g>
            <g id="illustration/rond/vert" transform="translate(20.000000, 200.000000)">
                <circle cx="4" cy="4" r="4"></circle>
            </g>
            <g id="illustration/rond/vert" transform="translate(120.000000, 80.000000)">
                <circle cx="4" cy="4" r="4"></circle>
            </g>
            <g id="illustration/rond/vert" transform="translate(120.000000, 200.000000)">
                <circle cx="4" cy="4" r="4"></circle>
            </g>
            <g id="illustration/rond/vert" transform="translate(40.000000, 80.000000)">
                <circle cx="4" cy="4" r="4"></circle>
            </g>
            <g id="illustration/rond/vert" transform="translate(40.000000, 200.000000)">
                <circle cx="4" cy="4" r="4"></circle>
            </g>
            <g id="illustration/rond/vert" transform="translate(140.000000, 80.000000)">
                <circle cx="4" cy="4" r="4"></circle>
            </g>
            <g id="illustration/rond/vert" transform="translate(140.000000, 200.000000)">
                <circle cx="4" cy="4" r="4"></circle>
            </g>
            <g id="illustration/rond/vert" transform="translate(60.000000, 80.000000)">
                <circle cx="4" cy="4" r="4"></circle>
            </g>
            <g id="illustration/rond/vert" transform="translate(60.000000, 200.000000)">
                <circle cx="4" cy="4" r="4"></circle>
            </g>
            <g id="illustration/rond/vert" transform="translate(160.000000, 80.000000)">
                <circle cx="4" cy="4" r="4"></circle>
            </g>
            <g id="illustration/rond/vert" transform="translate(160.000000, 200.000000)">
                <circle cx="4" cy="4" r="4"></circle>
            </g>
            <g id="illustration/rond/vert" transform="translate(80.000000, 80.000000)">
                <circle cx="4" cy="4" r="4"></circle>
            </g>
            <g id="illustration/rond/vert" transform="translate(80.000000, 200.000000)">
                <circle cx="4" cy="4" r="4"></circle>
            </g>
            <g id="illustration/rond/vert" transform="translate(0.000000, 100.000000)">
                <circle cx="4" cy="4" r="4"></circle>
            </g>
            <g id="illustration/rond/vert" transform="translate(100.000000, 100.000000)">
                <circle cx="4" cy="4" r="4"></circle>
            </g>
            <g id="illustration/rond/vert" transform="translate(20.000000, 100.000000)">
                <circle cx="4" cy="4" r="4"></circle>
            </g>
            <g id="illustration/rond/vert" transform="translate(120.000000, 100.000000)">
                <circle cx="4" cy="4" r="4"></circle>
            </g>
            <g id="illustration/rond/vert" transform="translate(40.000000, 100.000000)">
                <circle cx="4" cy="4" r="4"></circle>
            </g>
            <g id="illustration/rond/vert" transform="translate(140.000000, 100.000000)">
                <circle cx="4" cy="4" r="4"></circle>
            </g>
            <g id="illustration/rond/vert" transform="translate(60.000000, 100.000000)">
                <circle cx="4" cy="4" r="4"></circle>
            </g>
            <g id="illustration/rond/vert" transform="translate(160.000000, 100.000000)">
                <circle cx="4" cy="4" r="4"></circle>
            </g>
            <g id="illustration/rond/vert" transform="translate(80.000000, 100.000000)">
                <circle cx="4" cy="4" r="4"></circle>
            </g>
        </g>
        <g id="illustration/rond/vert" transform="translate(180.000000, 0.000000)" fill="#00D2B5">
            <circle cx="4" cy="4" r="4"></circle>
        </g>
        <g id="illustration/rond/vert" transform="translate(180.000000, 120.000000)" fill="#00D2B5">
            <circle cx="4" cy="4" r="4"></circle>
        </g>
        <g id="illustration/rond/vert" transform="translate(180.000000, 20.000000)" fill="#00D2B5">
            <circle cx="4" cy="4" r="4"></circle>
        </g>
        <g id="illustration/rond/vert" transform="translate(180.000000, 140.000000)" fill="#00D2B5">
            <circle cx="4" cy="4" r="4"></circle>
        </g>
        <g id="illustration/rond/vert" transform="translate(180.000000, 40.000000)" fill="#00D2B5">
            <circle cx="4" cy="4" r="4"></circle>
        </g>
        <g id="illustration/rond/vert" transform="translate(180.000000, 160.000000)" fill="#00D2B5">
            <circle cx="4" cy="4" r="4"></circle>
        </g>
        <g id="illustration/rond/vert" transform="translate(180.000000, 60.000000)" fill="#00D2B5">
            <circle cx="4" cy="4" r="4"></circle>
        </g>
        <g id="illustration/rond/vert" transform="translate(180.000000, 180.000000)" fill="#00D2B5">
            <circle cx="4" cy="4" r="4"></circle>
        </g>
        <g id="illustration/rond/vert" transform="translate(180.000000, 80.000000)" fill="#00D2B5">
            <circle cx="4" cy="4" r="4"></circle>
        </g>
        <g id="illustration/rond/vert" transform="translate(180.000000, 200.000000)" fill="#00D2B5">
            <circle cx="4" cy="4" r="4"></circle>
        </g>
        <g id="illustration/rond/vert" transform="translate(180.000000, 100.000000)" fill="#00D2B5">
            <circle cx="4" cy="4" r="4"></circle>
        </g>
        <g id="illustration/rond/vert" transform="translate(0.000000, 220.000000)" fill="#00D2B5">
            <circle cx="4" cy="4" r="4"></circle>
        </g>
        <g id="illustration/rond/vert" transform="translate(100.000000, 220.000000)" fill="#00D2B5">
            <circle cx="4" cy="4" r="4"></circle>
        </g>
        <g id="illustration/rond/vert" transform="translate(20.000000, 220.000000)" fill="#00D2B5">
            <circle cx="4" cy="4" r="4"></circle>
        </g>
        <g id="illustration/rond/vert" transform="translate(120.000000, 220.000000)" fill="#00D2B5">
            <circle cx="4" cy="4" r="4"></circle>
        </g>
        <g id="illustration/rond/vert" transform="translate(40.000000, 220.000000)" fill="#00D2B5">
            <circle cx="4" cy="4" r="4"></circle>
        </g>
        <g id="illustration/rond/vert" transform="translate(140.000000, 220.000000)" fill="#00D2B5">
            <circle cx="4" cy="4" r="4"></circle>
        </g>
        <g id="illustration/rond/vert" transform="translate(60.000000, 220.000000)" fill="#00D2B5">
            <circle cx="4" cy="4" r="4"></circle>
        </g>
        <g id="illustration/rond/vert" transform="translate(160.000000, 220.000000)" fill="#00D2B5">
            <circle cx="4" cy="4" r="4"></circle>
        </g>
        <g id="illustration/rond/vert" transform="translate(80.000000, 220.000000)" fill="#00D2B5">
            <circle cx="4" cy="4" r="4"></circle>
        </g>
        <g id="illustration/rond/vert" transform="translate(180.000000, 220.000000)" fill="#00D2B5">
            <circle cx="4" cy="4" r="4"></circle>
        </g>
    </g>
</svg>